<svg xmlns="http://www.w3.org/2000/svg" version="1.1" xmlns:xlink="http://www.w3.org/1999/xlink" xmlns:svgjs="http://svgjs.dev/svgjs" width="1500" height="261" viewBox="0 0 1500 261"><g transform="matrix(1,0,0,1,-0.9090909090909918,0.0351959348882076)"><svg viewBox="0 0 396 69" data-background-color="#ffffff" preserveAspectRatio="xMidYMid meet" height="261" width="1500" xmlns="http://www.w3.org/2000/svg" xmlns:xlink="http://www.w3.org/1999/xlink"><g id="tight-bounds" transform="matrix(1,0,0,1,0.2400000000000091,0.36324909008305895)"><svg viewBox="0 0 395.52 68.27350181983388" height="68.27350181983388" width="395.52"><g><svg viewBox="0 0 503.67076510251763 86.94216954344625" height="68.27350181983388" width="395.52"><g transform="matrix(1,0,0,1,108.15076510251762,12.015885949926368)"><svg viewBox="0 0 395.52 62.91039764359352" height="62.91039764359352" width="395.52"><g id="textblocktransform"><svg viewBox="0 0 395.52 62.91039764359352" height="62.91039764359352" width="395.52" id="textblock"><g><svg viewBox="0 0 395.52 62.91039764359352" height="62.91039764359352" width="395.52"><g transform="matrix(1,0,0,1,0,0)"><svg width="395.52" viewBox="-0.8 -37.3 237.63000000000002 37.8" height="62.91039764359352" data-palette-color="#001f3f"><path d="M16.2 0L-0.8-36.75 5.55-36.75 16.55-11.5 27.6-36.75 33.9-36.75 16.95 0 16.2 0ZM37.05 0L37.05-22.95 42.65-22.95 42.65 0 37.05 0ZM39.8-27.25Q38.25-27.25 37.2-28.3 36.15-29.35 36.15-30.9L36.15-30.9Q36.15-32.3 37.2-33.3 38.25-34.3 39.8-34.3L39.8-34.3Q41.3-34.3 42.35-33.3 43.4-32.3 43.4-30.9L43.4-30.9Q43.4-29.35 42.37-28.3 41.35-27.25 39.8-27.25L39.8-27.25ZM58.05 0.5Q55.65 0.5 53.07-0.13 50.5-0.75 49.4-1.6L49.4-1.6 51.2-5.85Q54.2-3.75 58.05-3.75L58.05-3.75Q61.9-3.75 61.9-6L61.9-6Q61.9-7 61.1-7.55 60.3-8.1 58.25-8.85L58.25-8.85 56.35-9.55Q53.35-10.75 51.6-12.43 49.85-14.1 49.85-16.85L49.85-16.85Q49.85-20 52.32-21.78 54.8-23.55 58.95-23.55L58.95-23.55Q61-23.55 62.97-23.1 64.95-22.65 66-21.95L66-21.95 64.05-17.65Q63.4-18.3 61.97-18.78 60.55-19.25 58.8-19.25L58.8-19.25Q55.25-19.25 55.25-17.1L55.25-17.1Q55.25-15.9 56.2-15.28 57.15-14.65 59.3-13.9L59.3-13.9Q59.5-13.85 60.85-13.35L60.85-13.35Q64.05-12.1 65.59-10.5 67.15-8.9 67.15-6.4L67.15-6.4Q67.15-3 64.57-1.25 62 0.5 58.05 0.5L58.05 0.5ZM80.69 0.5Q75.94 0.5 74.17-2.3 72.39-5.1 72.39-10.1L72.39-10.1 72.39-22.95 77.79-22.95 77.79-11.45Q77.79-8.6 78.12-7.03 78.44-5.45 79.42-4.7 80.39-3.95 82.34-3.95L82.34-3.95Q83.74-3.95 85.04-4.75 86.34-5.55 87.17-6.93 87.99-8.3 87.99-9.95L87.99-9.95 87.99-22.95 93.34-22.95 93.34 0 88.94 0 88.34-3.35Q87.09-1.4 85.22-0.45 83.34 0.5 80.69 0.5L80.69 0.5ZM110.69 0.5Q107.59 0.5 104.97-0.98 102.34-2.45 100.77-5.18 99.19-7.9 99.19-11.55L99.19-11.55Q99.19-15.15 100.57-17.85 101.94-20.55 104.49-22.05 107.04-23.55 110.49-23.55L110.49-23.55Q112.49-23.55 114.24-22.85 115.99-22.15 117.19-21.13 118.39-20.1 118.79-19.1L118.79-19.1 118.89-22.95 124.04-22.95 124.04 0 118.94 0 118.84-4.05Q117.99-2.25 115.74-0.88 113.49 0.5 110.69 0.5L110.69 0.5ZM111.59-4Q114.44-4 116.39-5.98 118.34-7.95 118.34-11.15L118.34-11.15 118.34-11.5Q118.34-13.65 117.44-15.35 116.54-17.05 114.99-18 113.44-18.95 111.59-18.95L111.59-18.95Q108.39-18.95 106.64-16.88 104.89-14.8 104.89-11.5L104.89-11.5Q104.89-8.15 106.62-6.08 108.34-4 111.59-4L111.59-4ZM131.74 0L131.74-36.75 137.09-36.75 137.09 0 131.74 0ZM145.04 0L145.04-36.75 153.89-36.75Q164.99-36.75 169.41-31.5 173.84-26.25 173.84-19L173.84-19Q173.84-13.95 171.94-9.68 170.04-5.4 165.66-2.7 161.29 0 154.19 0L154.19 0 145.04 0ZM150.64-4.95L154.79-4.95Q161.69-4.95 164.81-8.88 167.94-12.8 167.94-18.75L167.94-18.75Q167.94-24.55 164.79-28.2 161.64-31.85 154.79-31.85L154.79-31.85 150.64-31.85 150.64-4.95ZM187.88 0.5Q184.88 0.5 181.93-0.55 178.98-1.6 177.68-2.9L177.68-2.9 180.33-7.65Q181.38-6.7 183.61-5.68 185.83-4.65 187.88-4.65L187.88-4.65Q190.53-4.65 192.21-5.9 193.88-7.15 193.88-9.35L193.88-9.35Q193.88-11.05 192.98-12.3 192.08-13.55 190.78-14.38 189.48-15.2 187.08-16.4L187.08-16.4Q184.23-17.8 183.18-18.5L183.18-18.5Q178.33-21.75 178.33-27.5L178.33-27.5Q178.33-32.25 181.48-34.77 184.63-37.3 189.43-37.3L189.43-37.3Q194.58-37.3 198.18-34.35L198.18-34.35 195.53-29.8Q194.58-30.8 192.86-31.53 191.13-32.25 189.18-32.25L189.18-32.25Q186.68-32.25 185.26-31.13 183.83-30 183.83-27.8L183.83-27.8Q183.83-26.25 184.73-25.03 185.63-23.8 187.01-22.9 188.38-22 190.73-20.7L190.73-20.7Q192.98-19.45 194.18-18.73 195.38-18 196.43-17L196.43-17Q197.88-15.7 198.78-13.9 199.68-12.1 199.68-9.95L199.68-9.95Q199.68-6.6 198.16-4.25 196.63-1.9 193.96-0.7 191.28 0.5 187.88 0.5L187.88 0.5ZM218.58-36.8L219.13-36.8 236.83 0 230.38 0 227.23-7.2 210.38-7.2 207.23 0 200.98 0 218.58-36.8ZM218.83-26.15L216.63-21.15 212.63-12.25 225.03-12.25 221.08-21.1 218.93-26.15 218.83-26.15Z" opacity="1" transform="matrix(1,0,0,1,0,0)" fill="#001f3f" class="wordmark-text-0" data-fill-palette-color="primary" id="text-0"></path></svg></g></svg></g></svg></g></svg></g><g><svg viewBox="0 0 93.29913006840864 86.94216954344625" height="86.94216954344625" width="93.29913006840864"><g><svg xmlns="http://www.w3.org/2000/svg" xmlns:xlink="http://www.w3.org/1999/xlink" version="1.1" x="0" y="0" viewBox="215.941 218.66999706553048 80.11999999999998 74.66100293446954" enable-background="new 206 206 100 100" xml:space="preserve" height="86.94216954344625" width="93.29913006840864" class="icon-icon-0" data-fill-palette-color="accent" id="icon-0"><path d="M286.361 249.016C281.651 249.016 277.715 252.391 276.841 256.85L260.192 254.063A10.92 10.92 0 0 0 257.729 245.471L273.047 231.944A5.9 5.9 0 0 0 277.588 233.743H277.594A5.927 5.927 0 0 0 283.217 227.83 5.92 5.92 0 0 0 280.202 222.675L280.187 222.668A5.9 5.9 0 0 0 276.776 221.935H276.77A5.93 5.93 0 0 0 271.403 227.297L271.401 227.311A5.9 5.9 0 0 0 272.69 231.541L257.371 245.066A10.94 10.94 0 0 0 249.335 241.553C246.929 241.553 244.702 242.332 242.893 243.652L234.002 232.028A7.54 7.54 0 0 0 236.687 227.177C236.689 227.17 236.691 227.165 236.691 227.157A7.5 7.5 0 0 0 236.226 223.45 7.6 7.6 0 0 0 234.604 220.946C234.601 220.943 234.599 220.937 234.595 220.933 234.591 220.93 234.588 220.93 234.584 220.926A7.6 7.6 0 0 0 232.089 219.241 7.5 7.5 0 0 0 229.212 218.67C225.055 218.67 221.673 222.051 221.673 226.209 221.673 227.23 221.878 228.204 222.247 229.094 222.249 229.099 222.25 229.105 222.254 229.112A7.6 7.6 0 0 0 223.923 231.577C223.927 231.582 223.928 231.588 223.934 231.593L223.956 231.607A7.5 7.5 0 0 0 226.451 233.224C226.464 233.229 226.478 233.235 226.491 233.238A7.5 7.5 0 0 0 230.161 233.688H230.164C230.171 233.688 230.177 233.685 230.184 233.685A7.5 7.5 0 0 0 233.573 232.354L242.466 243.98A10.95 10.95 0 0 0 238.369 252.52 10.92 10.92 0 0 0 241.061 259.706L228.861 270.839A5 5 0 0 0 228.577 270.564L228.568 270.549C228.563 270.544 228.555 270.542 228.55 270.536A7.6 7.6 0 0 0 225.967 268.997C225.952 268.99 225.938 268.986 225.922 268.98A7.5 7.5 0 0 0 223.482 268.574C219.325 268.574 215.941 271.957 215.941 276.114 215.941 276.968 216.087 277.787 216.348 278.552 216.353 278.568 216.357 278.584 216.365 278.599 216.703 279.564 217.229 280.439 217.903 281.179 217.908 281.186 217.912 281.195 217.917 281.2S217.928 281.207 217.933 281.211A7.6 7.6 0 0 0 220.342 282.965C221.298 283.405 222.363 283.653 223.482 283.653 223.586 283.653 223.691 283.649 223.794 283.646H223.797A7.55 7.55 0 0 0 231.014 276.429C231.017 276.325 231.021 276.218 231.021 276.114A7.5 7.5 0 0 0 230.324 272.951 7.6 7.6 0 0 0 229.226 271.237L241.426 260.104A10.94 10.94 0 0 0 253.081 262.828L260.581 282.006A5.93 5.93 0 0 0 257.068 287.413 5.925 5.925 0 0 0 262.987 293.331 5.927 5.927 0 0 0 268.907 287.413 5.926 5.926 0 0 0 262.987 281.493C262.322 281.493 261.681 281.604 261.086 281.807L253.583 262.631A11 11 0 0 0 260.104 254.596L276.756 257.383A10 10 0 0 0 276.661 258.715C276.661 264.065 281.013 268.416 286.362 268.416S296.061 264.064 296.061 258.715C296.06 253.368 291.711 249.016 286.361 249.016M278.338 233.107L282.576 228.869A5.39 5.39 0 0 1 278.338 233.107M275.984 222.614L272.083 226.515A5.39 5.39 0 0 1 275.984 222.614M272.456 230.17A5.34 5.34 0 0 1 271.936 227.426L276.895 222.468A5.33 5.33 0 0 1 279.638 222.988L278.72 223.906A0.27 0.27 0 1 0 279.101 224.288L280.129 223.26A5.4 5.4 0 0 1 281.785 224.868L280.697 225.955A0.271 0.271 0 0 0 280.888 226.416C280.958 226.416 281.027 226.389 281.078 226.337L282.066 225.349A5.3 5.3 0 0 1 282.671 228.008L277.475 233.204C277.415 233.206 277.356 233.209 277.296 233.209A5.3 5.3 0 0 1 274.814 232.599L279.288 228.125A0.27 0.27 0 0 0 279.288 227.743 0.27 0.27 0 0 0 278.907 227.743L274.334 232.316A5.4 5.4 0 0 1 272.726 230.661L276.838 226.549A0.27 0.27 0 0 0 276.838 226.168 0.27 0.27 0 0 0 276.456 226.168zM227.718 219.372L222.374 224.716A7.02 7.02 0 0 1 227.718 219.372M224.513 231.394L229.021 226.886A0.27 0.27 0 0 0 229.021 226.504 0.27 0.27 0 0 0 228.639 226.504L224.129 231.014A7 7 0 0 1 222.82 229.06L226.57 225.31A0.27 0.27 0 0 0 226.57 224.929 0.27 0.27 0 0 0 226.189 224.929L222.604 228.513A6.9 6.9 0 0 1 222.238 225.614L228.615 219.237A6.9 6.9 0 0 1 231.514 219.601L228.448 222.667A0.27 0.27 0 0 0 228.639 223.128 0.27 0.27 0 0 0 228.83 223.049L232.06 219.819A7 7 0 0 1 234.018 221.128L230.428 224.716A0.27 0.27 0 0 0 230.619 225.177 0.27 0.27 0 0 0 230.81 225.098L234.396 221.513A7 7 0 0 1 235.667 223.505L226.506 232.666A7 7 0 0 1 224.513 231.394M230.983 232.983L231.368 232.596A0.27 0.27 0 0 0 231.368 232.214 0.27 0.27 0 0 0 230.986 232.214L230.041 233.159A7 7 0 0 1 227.065 232.871L235.873 224.063A6.9 6.9 0 0 1 236.161 227.039L232.859 230.341A0.27 0.27 0 0 0 233.05 230.802 0.27 0.27 0 0 0 233.241 230.723L235.985 227.979A7.04 7.04 0 0 1 230.983 232.983M216.479 276.114C216.479 273.062 218.443 270.463 221.173 269.507L217.729 272.951A0.27 0.27 0 0 0 217.92 273.412 0.27 0.27 0 0 0 218.111 273.333L222.213 269.231A6.95 6.95 0 0 1 225.339 269.366L216.734 277.972A7 7 0 0 1 216.479 276.114M230.478 276.114C230.478 276.18 230.477 276.248 230.475 276.314L229.829 276.96A0.27 0.27 0 0 0 230.02 277.421 0.27 0.27 0 0 0 230.211 277.342L230.402 277.151A7.01 7.01 0 0 1 224.516 283.036L228.006 279.546A0.27 0.27 0 0 0 228.006 279.165 0.27 0.27 0 0 0 227.624 279.165L223.681 283.107C223.615 283.109 223.548 283.113 223.481 283.113A7 7 0 0 1 220.906 282.62L229.988 273.538C230.303 274.335 230.478 275.204 230.478 276.114M229.751 273.01L220.376 282.385A7.1 7.1 0 0 1 218.485 281.011L223.768 275.729C223.874 275.623 223.874 275.454 223.768 275.347S223.493 275.241 223.386 275.347L218.121 280.612A7 7 0 0 1 216.918 278.55L225.915 269.553C226.673 269.833 227.368 270.244 227.977 270.755L225.262 273.471A0.27 0.27 0 1 0 225.643 273.853L228.376 271.12A7 7 0 0 1 229.751 273.01M249.335 244.344C251.674 244.344 253.786 245.333 255.278 246.913L253.928 248.105A6.35 6.35 0 0 0 245.682 247.299L244.589 245.87A8.1 8.1 0 0 1 249.335 244.344M241.159 252.52A8.16 8.16 0 0 1 244.159 246.195L245.254 247.627A6.36 6.36 0 0 0 244.452 256.614L243.123 257.827A8.14 8.14 0 0 1 241.159 252.52M249.335 260.696A8.15 8.15 0 0 1 243.485 258.224L244.814 257.012A6.36 6.36 0 0 0 251.404 258.55L252.061 260.228A8.1 8.1 0 0 1 249.335 260.696M252.564 260.03L251.906 258.352A6.4 6.4 0 0 0 255.574 253.838L257.351 254.135A8.21 8.21 0 0 1 252.564 260.03M257.437 253.602L255.662 253.305A6.35 6.35 0 0 0 254.286 248.509L255.637 247.317A8.15 8.15 0 0 1 257.437 253.602M286.361 267.876C281.31 267.876 277.2 263.766 277.2 258.715 277.2 258.294 277.232 257.878 277.288 257.471L278.888 257.74C278.846 258.06 278.821 258.385 278.821 258.716 278.821 262.874 282.205 266.257 286.362 266.257S293.901 262.874 293.901 258.716C293.901 254.559 290.519 251.177 286.362 251.177 282.721 251.177 279.674 253.77 278.974 257.207L277.375 256.939C278.205 252.736 281.918 249.557 286.361 249.557 291.411 249.557 295.52 253.665 295.52 258.716 295.52 263.766 291.411 267.876 286.361 267.876" fill="#0051d9" data-fill-palette-color="accent"></path></svg></g></svg></g></svg></g><defs></defs></svg><rect width="395.52" height="68.27350181983388" fill="none" stroke="none" visibility="hidden"></rect></g></svg></g></svg>